<?xml version="1.0" encoding="UTF-8"?>
<svg version="1.1" xmlns="http://www.w3.org/2000/svg" width="534" height="534">
<path d="M0 0 C0.85614899 -0.00701431 1.71229797 -0.01402863 2.59439087 -0.02125549 C5.34032526 -0.03864702 8.08604381 -0.04510728 10.83203125 -0.046875 C11.77138519 -0.04754974 12.71073914 -0.04822449 13.67855835 -0.04891968 C27.85869399 -0.03273662 41.70112902 0.38776122 55.64453125 3.203125 C56.53285645 3.38004883 57.42118164 3.55697266 58.33642578 3.73925781 C76.57672798 7.49032688 93.25628139 13.393666 109.64453125 22.203125 C110.70414062 22.75742187 111.76375 23.31171875 112.85546875 23.8828125 C129.88190628 33.22277429 144.29105183 47.45864613 151.625 65.6328125 C152.91790725 70.09290864 152.57128131 73.75472469 151.64453125 78.203125 C145.10397605 79.65350235 139.42326626 78.58837178 132.89453125 77.390625 C131.87359375 77.21208984 130.85265625 77.03355469 129.80078125 76.84960938 C125.74880986 76.13742912 121.70150584 75.40840984 117.6628418 74.62402344 C112.69731182 73.6714403 108.03716028 72.95859255 102.95703125 73.078125 C101.94253906 73.09617187 100.92804688 73.11421875 99.8828125 73.1328125 C99.14417969 73.15601562 98.40554688 73.17921875 97.64453125 73.203125 C99.02477684 78.63373413 101.49325947 81.82897646 105.14453125 85.890625 C105.68134521 86.50292969 106.21815918 87.11523438 106.77124023 87.74609375 C110.02997529 91.44777771 113.36221106 95.07912239 116.70703125 98.703125 C139.9004115 124.12306975 155.06109774 152.2590832 153.9765625 187.44140625 C153.20231427 201.64534198 153.20231427 201.64534198 148.64453125 206.203125 C143.66432983 207.15678059 140.88834572 206.06358997 136.58203125 203.453125 C127.35366496 197.18695036 119.16587083 189.53356367 110.95703125 182.015625 C105.68684352 177.19102165 100.22491146 172.66297674 94.64453125 168.203125 C93.5402832 167.30608976 92.43611992 166.40895016 91.33203125 165.51171875 C87.81881793 162.67572157 84.25012896 159.92044338 80.64453125 157.203125 C80.04672852 156.74744141 79.44892578 156.29175781 78.83300781 155.82226562 C70.84656374 149.6456857 70.84656374 149.6456857 61.20703125 147.828125 C58.48702004 148.33181857 58.48702004 148.33181857 55.64453125 149.203125 C54.47019531 149.5228125 53.29585938 149.8425 52.0859375 150.171875 C33.50493388 155.80132953 18.60698501 165.99298035 7.64453125 182.203125 C6.41510936 184.52860776 5.51102673 186.7119505 4.64453125 189.203125 C6.70784255 188.58080856 8.77014815 187.95515715 10.83203125 187.328125 C12.55486328 186.80605469 12.55486328 186.80605469 14.3125 186.2734375 C17.57245544 185.27617129 17.57245544 185.27617129 20.36328125 184.078125 C23.21181695 182.98553597 25.62104149 183.06249757 28.64453125 183.203125 C28.33686502 189.04878336 27.1323857 194.12538043 25.20703125 199.640625 C16.44770563 224.81705503 18.85629571 250.03937631 29.64453125 274.203125 C31.39700283 277.76254914 33.32580446 280.98720241 35.64453125 284.203125 C36.41410156 285.30140625 36.41410156 285.30140625 37.19921875 286.421875 C44.02585467 295.52405622 52.53162809 303.26983311 60.64453125 311.203125 C60.63929443 310.54715332 60.63405762 309.89118164 60.62866211 309.21533203 C60.60791853 306.25293937 60.59487949 303.29056197 60.58203125 300.328125 C60.57365234 299.29558594 60.56527344 298.26304687 60.55664062 297.19921875 C60.55180664 295.72001953 60.55180664 295.72001953 60.546875 294.2109375 C60.53901978 292.84412842 60.53901978 292.84412842 60.53100586 291.44970703 C60.64453125 289.203125 60.64453125 289.203125 61.64453125 287.203125 C64.65340876 286.89078477 66.13105082 286.80814005 68.57421875 288.6875 C74.35248681 295.41720979 79.63234948 302.46397343 84.91015625 309.59033203 C90.49667921 317.1010707 96.42331544 324.21487852 102.64453125 331.203125 C103.44503906 332.11449219 104.24554688 333.02585937 105.0703125 333.96484375 C107.23389846 336.40495019 109.42834118 338.81078673 111.64453125 341.203125 C112.61326172 342.27046875 112.61326172 342.27046875 113.6015625 343.359375 C129.26761179 359.89409624 150.09310617 372.68174699 170.64453125 382.203125 C170.57234375 381.51347656 170.50015625 380.82382812 170.42578125 380.11328125 C169.83259183 374.10723841 169.5456083 368.237425 169.64453125 362.203125 C173.26441353 360.99649757 174.4686567 361.7827552 177.78393555 363.39990234 C178.45980713 363.74746582 179.13567871 364.0950293 179.83203125 364.453125 C180.5381958 364.81229004 181.24436035 365.17145508 181.97192383 365.54150391 C202.20210041 376.13282046 219.91124031 391.67137952 236.9296875 406.7109375 C238.59823877 408.16284316 240.30141826 409.56050584 242.01953125 410.953125 C244.64453125 413.203125 244.64453125 413.203125 246.64453125 416.203125 C246.76701437 421.4698992 244.40067537 424.35927369 240.94921875 428.01171875 C204.456321 462.7108978 149.04924919 469.29764978 101.02539062 468.33496094 C62.48532086 467.32962279 25.021861 457.05829375 -11.46875 445.421875 C-12.14664959 445.20585255 -12.82454918 444.98983009 -13.52299118 444.76726151 C-20.41851812 442.56874753 -27.31062715 440.36045253 -34.1918726 438.11760235 C-84.46197046 421.74802155 -136.50650632 409.96999931 -186.34033203 435.09619141 C-190.96017147 437.63391275 -195.35244736 440.56446973 -199.68652344 443.55932617 C-200.35458008 444.01670166 -201.02263672 444.47407715 -201.7109375 444.9453125 C-202.29512451 445.3563623 -202.87931152 445.76741211 -203.48120117 446.19091797 C-205.73473598 447.40795005 -207.83809812 447.8055173 -210.35546875 448.203125 C-215.16763509 442.96489985 -219.34029688 437.61103039 -223.10546875 431.578125 C-223.87189697 430.35041382 -223.87189697 430.35041382 -224.65380859 429.09790039 C-257.29060842 375.82800508 -265.54992794 316.41019599 -265.54077148 255.09448242 C-265.54069079 252.31153789 -265.54755824 249.52875998 -265.5612793 246.74584961 C-265.89421419 178.06048609 -265.89421419 178.06048609 -258.35546875 162.203125 C-256.29296875 161.765625 -256.29296875 161.765625 -253.35546875 162.203125 C-251.50408608 163.88228603 -249.90226218 165.65935935 -248.296875 167.57421875 C-245.75808638 169.70434924 -243.58798858 169.75598397 -240.35546875 170.203125 C-240.07985107 169.52548096 -239.8042334 168.84783691 -239.52026367 168.1496582 C-230.91141144 147.10047323 -221.74635318 126.6833964 -208.35546875 108.203125 C-207.94973633 107.64189941 -207.54400391 107.08067383 -207.12597656 106.50244141 C-201.08926149 98.23726411 -194.45798265 90.5673425 -187.35546875 83.203125 C-186.68950684 82.50993164 -186.02354492 81.81673828 -185.33740234 81.10253906 C-175.89372195 71.32391663 -166.35754791 62.19799038 -155.35546875 54.203125 C-154.77845215 53.77596191 -154.20143555 53.34879883 -153.60693359 52.90869141 C-132.38641338 37.19953872 -109.34143535 24.77649946 -84.35546875 16.203125 C-83.58348145 15.93306641 -82.81149414 15.66300781 -82.01611328 15.38476562 C-55.97874321 6.35832875 -27.65437996 0.15308405 0 0 Z " fill="#F95E1B" transform="translate(276.35546875,35.796875)"/>
<path d="M0 0 C2.20272487 1.00535326 4.44041585 1.86636887 6.71044922 2.70727539 C17.3737251 6.95605353 26.97428741 12.78816193 35.96044922 19.89477539 C37.14960937 20.83450195 37.14960937 20.83450195 38.36279297 21.79321289 C44.10009621 26.59881732 49.52950424 32.18336547 52.96044922 38.89477539 C52.60407441 43.2511502 52.60407441 43.2511502 50.96044922 44.89477539 C46.15810616 45.44049619 42.49407829 44.55258774 37.89794922 43.08227539 C27.01918792 39.61243212 17.17574533 37.62463762 5.77294922 37.51977539 C4.85126953 37.50591797 3.92958984 37.49206055 2.97998047 37.4777832 C1.68060547 37.48696777 1.68060547 37.48696777 0.35498047 37.49633789 C-0.80747192 37.50141357 -0.80747192 37.50141357 -1.9934082 37.5065918 C-4.58348996 37.99796872 -5.4572799 38.81574151 -7.03955078 40.89477539 C-7.96294652 44.09195249 -7.96294652 44.09195249 -7.03955078 47.89477539 C-2.17430821 55.2327418 4.24411885 61.40630927 10.52294922 67.51977539 C15.70689971 72.592553 20.77010113 77.6750227 25.49243164 83.18383789 C27.22176456 85.19933183 29.02930777 87.13565627 30.83544922 89.08227539 C45.55461074 105.73368205 57.03542362 126.96462983 57.14794922 149.58227539 C57.16212891 150.88551758 57.17630859 152.18875977 57.19091797 153.53149414 C56.96044922 156.89477539 56.96044922 156.89477539 54.96044922 159.89477539 C48.15345254 157.4098683 43.10431957 152.85542125 37.78076172 148.03540039 C28.26226221 139.46194332 18.13320983 132.35391646 7.359375 125.43725586 C5.28800023 124.10538676 3.2286561 122.75806073 1.17529297 121.39868164 C-8.32956279 115.16216225 -18.14071863 109.47873199 -28.03955078 103.89477539 C-28.70100098 103.51933594 -29.36245117 103.14389648 -30.04394531 102.75708008 C-40.35922181 96.93710381 -51.02414503 92.22919828 -62.03955078 87.89477539 C-62.97557129 87.52175293 -63.9115918 87.14873047 -64.87597656 86.7644043 C-85.37960335 78.68042758 -107.8138451 71.82634634 -130.03564453 71.69165039 C-131.16245384 71.68310028 -131.16245384 71.68310028 -132.31202698 71.67437744 C-133.89786395 71.66497892 -135.48371999 71.65841408 -137.06958008 71.65454102 C-139.43949759 71.64492772 -141.80851139 71.6138946 -144.17822266 71.58227539 C-160.80659463 71.46718852 -179.36531998 73.32343721 -193.32470703 83.16821289 C-196.2345439 86.09793475 -196.55334981 88.86625308 -197.03955078 92.89477539 C-196.32927734 93.17321289 -195.61900391 93.45165039 -194.88720703 93.73852539 C-193.02587065 94.49429434 -191.17817866 95.28483069 -189.34814453 96.11352539 C-172.43448577 103.66138943 -154.17999967 103.37929401 -136.23681641 99.96899414 C-130.46157503 98.88385394 -124.92027416 98.54504074 -119.03955078 98.89477539 C-119.0740086 106.33766317 -121.10082449 110.43504061 -126.03955078 115.89477539 C-126.59513672 116.55348633 -127.15072266 117.21219727 -127.72314453 117.89086914 C-142.86668534 134.59761416 -167.98805013 140.8831511 -189.35205078 144.26977539 C-210.2478585 147.64897863 -233.9330449 154.98833234 -249.03955078 170.89477539 C-250.79095836 174.01552755 -250.79095836 174.01552755 -252.03955078 176.89477539 C-251.22099609 176.67821289 -250.40244141 176.46165039 -249.55908203 176.23852539 C-229.90519561 171.76514345 -208.32760676 171.86463153 -189.03955078 177.89477539 C-188.14494141 178.17192383 -187.25033203 178.44907227 -186.32861328 178.73461914 C-183.80186373 179.64542421 -181.45191937 180.71161664 -179.03955078 181.89477539 C-178.44384277 182.18449219 -177.84813477 182.47420898 -177.234375 182.77270508 C-162.15700042 190.18876745 -141.59949081 200.55486535 -132.03955078 214.89477539 C-132.03955078 216.21477539 -132.03955078 217.53477539 -132.03955078 218.89477539 C-134.89899632 220.46235232 -137.42445715 221.3009284 -140.63012695 221.86865234 C-141.53595016 222.03254959 -142.44177338 222.19644684 -143.37504578 222.36531067 C-144.35101212 222.53616684 -145.32697845 222.70702301 -146.33251953 222.88305664 C-148.42955139 223.26376923 -150.52655567 223.64463378 -152.62353516 224.02563477 C-155.90480251 224.61433058 -159.18655604 225.20009374 -162.46899414 225.78222656 C-178.75958459 228.68342643 -195.04596993 231.63277648 -210.16455078 238.64477539 C-210.90406982 238.98202637 -211.64358887 239.31927734 -212.40551758 239.66674805 C-229.15909145 247.48974976 -243.63245444 258.21294701 -257.03955078 270.89477539 C-258.00763672 271.78680664 -258.97572266 272.67883789 -259.97314453 273.59790039 C-288.76886794 300.707616 -296.20191972 340.29747818 -301.03955078 377.89477539 C-317.25269913 362.70525619 -322.71618619 328.63010013 -327.03955078 307.89477539 C-327.20680664 307.09604004 -327.3740625 306.29730469 -327.54638672 305.47436523 C-328.53461981 300.6341483 -329.34051214 295.78454484 -330.03955078 290.89477539 C-330.14251465 290.21962891 -330.24547852 289.54448242 -330.3515625 288.84887695 C-340.19566585 221.88409174 -322.46210708 148.40670211 -282.71411133 93.67944336 C-278.10800882 87.51364699 -273.09279001 81.69460517 -268.03955078 75.89477539 C-267.44787109 75.19094727 -266.85619141 74.48711914 -266.24658203 73.76196289 C-257.50765956 63.44787662 -247.69873149 54.18857611 -237.03955078 45.89477539 C-235.60095703 44.73075195 -235.60095703 44.73075195 -234.13330078 43.54321289 C-215.42861557 28.66448602 -194.06352434 15.96504347 -171.45751953 8.08618164 C-168.64347682 7.10528675 -165.91087361 6.04645916 -163.16455078 4.89477539 C-155.59883608 1.83792097 -147.80746972 -0.61990883 -140.03955078 -3.10522461 C-138.87294922 -3.47905273 -137.70634766 -3.85288086 -136.50439453 -4.23803711 C-129.57272317 -6.33654072 -122.57818745 -7.90019607 -115.47705078 -9.29272461 C-114.2196106 -9.5433667 -114.2196106 -9.5433667 -112.93676758 -9.79907227 C-77.32452345 -16.48303652 -33.21226308 -15.26370885 0 0 Z " fill="#FEF397" transform="translate(361.03955078125,60.105224609375)"/>
</svg>
