<?xml version="1.0" standalone="no"?>
<!DOCTYPE svg PUBLIC "-//W3C//DTD SVG 20010904//EN"
 "http://www.w3.org/TR/2001/REC-SVG-20010904/DTD/svg10.dtd">
<svg version="1.0" xmlns="http://www.w3.org/2000/svg"
 width="534.000000pt" height="534.000000pt" viewBox="0 0 534.000000 534.000000"
 preserveAspectRatio="xMidYMid meet">

<g transform="translate(0.000000,534.000000) scale(0.100000,-0.100000)"
fill="#000000" stroke="none">
<path d="M452 3463 c-6 -11 -25 -55 -42 -99 -18 -43 -36 -85 -42 -91 -19 -23
-46 -14 -98 32 -82 73 -89 66 -114 -111 -26 -177 -36 -380 -36 -709 0 -460 19
-694 76 -954 55 -244 166 -540 279 -740 64 -114 164 -261 186 -274 13 -8 37 2
105 45 259 163 492 230 799 231 238 0 430 -41 900 -193 485 -157 740 -223
1040 -267 173 -25 615 -25 770 0 238 39 404 90 591 182 192 93 354 223 354
283 0 40 -289 287 -505 431 -105 70 -214 131 -235 131 -13 0 -13 -61 1 -134
16 -90 4 -96 -90 -45 -315 171 -526 358 -788 695 -151 194 -184 229 -209 220
-15 -6 -16 -19 -10 -121 7 -104 6 -115 -9 -115 -20 0 -145 118 -205 194 l-42
53 -102 -18 c-189 -32 -330 -43 -556 -43 -230 0 -357 10 -560 44 -108 18 -399
86 -408 95 -8 7 153 83 243 113 108 37 224 57 445 77 181 16 225 25 264 56 32
25 35 79 6 127 -19 30 -23 32 -79 32 -33 0 -67 3 -76 6 -13 5 -15 2 -10 -18 9
-34 -12 -41 -211 -78 -370 -69 -448 -90 -610 -165 -231 -107 -492 -325 -619
-514 -117 -177 -219 -497 -240 -751 -11 -136 -11 -136 -62 -36 -125 248 -219
575 -254 886 -14 130 -14 443 0 570 36 305 116 613 221 846 l28 62 -43 42
c-40 39 -44 41 -53 23z"/>
<path d="M4178 3086 c-58 -39 -107 -73 -107 -76 -2 -12 104 -72 134 -77 27 -4
36 -1 49 18 20 32 38 117 34 166 l-3 40 -107 -71z"/>
</g>
</svg>
